<svg width="304" height="260" viewBox="0 0 304 260" fill="none" xmlns="http://www.w3.org/2000/svg">
<path d="M289.823 221.5H258.223C257.623 221.5 257.223 222 257.223 222.5V246.5C257.223 253.5 262.923 259.2 269.923 259.2H278.323C285.323 259.2 291.023 253.5 291.023 246.5V222.5C290.923 221.9 290.423 221.5 289.823 221.5Z" fill="#383F45"/>
<path d="M286.023 255C293.123 251 305.423 239.1 303.423 230.7C302.923 228.5 301.523 226.8 299.423 225.8C294.723 223.6 287.923 226.3 287.123 226.6L289.423 231.3C291.023 230.6 295.023 229.5 296.923 230.4C297.323 230.6 297.723 230.9 297.923 231.8C299.123 236.7 289.523 247 283.123 250.6L286.023 255Z" fill="#383F45"/>
<path d="M277.323 211.9C277.423 212.1 277.423 211.8 277.523 211.6L277.723 210.8C277.823 210.3 277.923 209.7 278.023 209.2C278.123 208.1 278.223 206.9 278.223 205.7C278.123 203.3 277.623 200.8 276.723 198.5C275.723 196.2 274.323 194.3 272.823 192.8C272.023 192 271.223 191.4 270.423 190.8L268.423 189.4C266.123 187.8 264.023 185.7 262.523 183.6C261.823 182.5 261.323 181.4 261.123 180.5C260.923 179.6 260.923 179 261.023 178.6C261.123 178.4 261.123 178.2 261.323 177.9C261.523 177.6 261.623 177.1 261.923 176.7C262.423 175.8 263.123 175 263.823 174.2C265.323 172.8 267.123 171.8 268.923 171.6C270.723 171.3 272.623 171.7 274.523 172.6C275.423 173.1 276.423 173.6 277.323 174.4C277.823 174.8 278.223 175.1 278.723 175.6C279.223 176.1 279.623 176.5 280.223 176.6L282.123 176.9C286.223 177.6 289.923 173.9 290.523 168.5C290.823 165.6 290.123 162.7 288.723 160.6C288.123 159.7 287.323 159 286.523 158.4C285.723 157.8 284.823 157.3 284.023 156.7C282.323 155.6 280.423 154.8 278.523 154.2C274.723 152.9 270.423 152.8 266.423 154.1C262.423 155.4 258.623 158.1 255.623 161.9C254.123 163.9 252.823 166 251.823 168.5C251.323 169.7 250.923 171.1 250.523 172.6C250.123 174.2 249.923 176 249.823 177.7C249.723 181.3 250.623 184.6 251.823 187.2C253.023 189.8 254.523 191.7 256.023 193.3C259.023 196.5 262.223 198.3 265.423 199.7L266.623 200.2L267.223 200.4L267.623 200.5C268.223 200.7 268.723 200.9 269.223 201.2C270.223 201.7 271.223 202.3 272.023 203.3C272.823 204.2 273.623 205.4 274.223 206.8C274.523 207.5 274.823 208.3 275.023 209.2C275.123 209.6 275.223 210.1 275.423 210.5L275.623 211.2C275.723 211.5 275.723 211.6 275.923 212.4C276.123 213.1 276.623 213.5 277.223 213.2C277.223 213.4 277.423 212.6 277.323 211.9Z" fill="#CBD9E5"/>
<path d="M125.429 120.588H79.5722C67.8321 120.588 58.1992 111.026 58.1992 99.148V52.946H144.795V101.161C144.795 111.932 136.165 120.588 125.429 120.588Z" fill="#8D3333"/>
<path d="M168.977 188.331L38.0298 186.116V172.125C38.0298 149.276 66.0254 128.037 93.4189 128.037H114.089C138.473 128.037 168.877 149.477 168.877 169.709V188.331H168.977Z" fill="#383F45"/>
<path d="M110.076 99.2488H93.4188C90.0071 99.2488 87.2979 101.967 87.2979 105.389V131.661C87.2979 139.613 93.7198 146.155 101.747 146.155C109.674 146.155 116.197 139.713 116.197 131.661V105.389C116.197 101.967 113.487 99.2488 110.076 99.2488Z" fill="#FBC39D"/>
<path d="M87.2979 127.936C87.2979 127.936 88.502 136.492 101.747 136.492C114.992 136.492 116.197 127.936 116.197 127.936H87.2979Z" fill="#F9AC7F"/>
<path d="M143.289 66.3334C138.272 66.3334 134.158 70.561 134.158 75.7952C134.158 81.0294 138.272 85.257 143.289 85.257C148.307 85.257 152.421 81.0294 152.421 75.7952C152.32 70.561 148.307 66.3334 143.289 66.3334Z" fill="#F9AC7F"/>
<path d="M60.3065 66.3334C55.2893 66.3334 51.1753 70.561 51.1753 75.7952C51.1753 81.0294 55.2893 85.257 60.3065 85.257C65.3236 85.257 69.4376 81.0294 69.4376 75.7952C69.4376 70.561 65.3236 66.3334 60.3065 66.3334Z" fill="#F9AC7F"/>
<path d="M98.4368 130.754C99.4402 130.956 100.644 130.956 101.748 130.956C105.16 130.956 108.471 130.553 111.682 129.647V129.547C129.342 124.916 142.387 108.207 142.387 88.3775V38.7532C142.387 15.2999 124.125 19.0243 101.748 19.0243C79.2714 19.1249 61.1094 15.4006 61.1094 38.7532V88.4781C61.1094 110.724 77.5656 129.043 98.4368 130.754Z" fill="#FBC39D"/>
<path d="M137.269 72.1718V85.5593H119.81C119.81 85.5593 116.197 75.8962 101.748 75.8962C87.2988 75.8962 83.6865 85.5593 83.6865 85.5593H66.3272V72.1718C66.3272 66.837 64.4207 65.1258 61.1094 64.5219V88.4784C61.1094 110.724 77.5656 128.943 98.4368 130.755L98.3365 130.855C99.4402 130.956 100.544 131.057 101.748 131.057C102.852 131.057 104.056 130.956 105.16 130.855L105.059 130.755C125.931 128.943 142.387 110.724 142.387 88.4784V64.5219C139.176 65.1258 137.269 66.837 137.269 72.1718Z" fill="#0D0F29"/>
<path d="M89.2046 91.3972H113.688C113.688 91.3972 111.481 101.06 101.446 101.06C91.4121 101.06 89.2046 91.3972 89.2046 91.3972Z" fill="#E6E6E6"/>
<path d="M197.775 258.59H7.12433C3.21096 258.59 0 255.369 0 251.443V251.141C0 247.216 3.21096 243.995 7.12433 243.995H197.876C201.789 243.995 205 247.216 205 251.141V251.443C204.9 255.369 201.689 258.59 197.775 258.59Z" fill="#C2D1DE"/>
<path d="M180.317 258.59H23.3807C18.3636 258.59 14.2495 254.463 14.2495 249.43V159.039C14.2495 154.006 18.3636 149.879 23.3807 149.879H180.417C185.434 149.879 189.548 154.006 189.548 159.039V249.43C189.448 254.463 185.434 258.59 180.317 258.59Z" fill="#CBD9E6"/>
<path d="M99.7408 216.515C93.0179 216.515 87.499 210.979 87.499 204.235C87.499 197.491 93.0179 191.954 99.7408 191.954C106.464 191.954 111.983 197.491 111.983 204.235C111.983 210.979 106.464 216.515 99.7408 216.515Z" fill="white"/>
<path d="M102.55 81.5328H100.242C97.4325 81.5328 95.3253 79.117 95.6263 76.2986L96.8304 66.8367C97.1314 64.5216 99.1383 62.8104 101.446 62.8104C103.754 62.8104 105.761 64.5216 106.062 66.8367L107.266 76.2986C107.467 79.117 105.36 81.5328 102.55 81.5328Z" fill="#F9AC7F"/>
<path d="M104.858 7.04605H96.3291C94.4226 7.04605 92.9175 5.53618 92.9175 3.62368V3.42237C92.9175 1.50987 94.4226 0 96.3291 0H104.858C106.765 0 108.27 1.50987 108.27 3.42237V3.62368C108.27 5.53618 106.664 7.04605 104.858 7.04605Z" fill="#858A8E"/>
<path d="M58.1992 52.9458H144.795V42.6787C144.795 21.6413 127.737 4.52942 106.765 4.63008H96.1287C75.1571 4.63008 58.1992 21.6413 58.1992 42.7794V52.9458Z" fill="#8D3333"/>
<path d="M104.457 27.0769H97.2323C90.71 27.0769 85.4922 32.3111 85.4922 38.8539V47.0072H116.197V38.8539C116.197 32.3111 110.979 27.0769 104.457 27.0769Z" fill="#3A0909"/>
<path d="M86.0945 40.7664H116.298V50.9328H86.0945C83.2849 50.9328 80.9771 48.6177 80.9771 45.7993C81.0774 42.9808 83.2849 40.7664 86.0945 40.7664Z" fill="#858A8E"/>
<path d="M91.0108 46.0005C91.0108 47.4097 89.907 48.5169 88.5022 48.5169C87.0974 48.5169 85.9937 47.4097 85.9937 46.0005C85.9937 44.5912 87.0974 43.484 88.5022 43.484C89.907 43.484 91.0108 44.5912 91.0108 46.0005Z" fill="#FF553C"/>
<path d="M91.0108 46.0005C91.0108 47.4097 89.907 48.5169 88.5022 48.5169C87.0974 48.5169 85.9937 47.4097 85.9937 46.0005C85.9937 44.5912 87.0974 43.484 88.5022 43.484C89.907 43.484 91.0108 44.5912 91.0108 46.0005Z" fill="#211F1D"/>
<path d="M99.1558 48.4723C100.522 48.2398 101.441 46.9406 101.209 45.5704C100.978 44.2002 99.6824 43.2779 98.3165 43.5104C96.9506 43.7429 96.0312 45.0422 96.2629 46.4124C96.4947 47.7826 97.7899 48.7048 99.1558 48.4723Z" fill="#211F1D"/>
<path d="M111.28 46.0005C111.28 47.4097 110.176 48.5169 108.771 48.5169C107.366 48.5169 106.263 47.4097 106.263 46.0005C106.263 44.5912 107.366 43.484 108.771 43.484C110.176 43.484 111.28 44.5912 111.28 46.0005Z" fill="#211F1D"/>
<path d="M85.7935 62.8104C85.7935 64.9242 84.0877 66.5347 82.0808 66.5347C79.9736 66.5347 78.3682 64.8235 78.3682 62.8104C78.3682 60.6965 80.074 59.086 82.0808 59.086C84.0877 58.9854 85.7935 60.6965 85.7935 62.8104Z" fill="#111110"/>
<path d="M123.221 62.8104C123.221 64.9242 121.515 66.5347 119.509 66.5347C117.401 66.5347 115.796 64.8235 115.796 62.8104C115.796 60.6965 117.502 59.086 119.509 59.086C121.515 58.9854 123.221 60.6965 123.221 62.8104Z" fill="#111110"/>
<path d="M116.398 40.6659C116.398 40.6659 123.823 36.2369 123.221 28.7883L113.689 31.506L115.695 23.2521L107.267 32.0093L116.398 40.6659Z" fill="#3A0909"/>
</svg>
